# xmcd
#
# Track frame offsets: 
#        150
#        12757
#        25145
#        42220
#        58015
#        77760
#        88977
#        100992
#        118557
#        151467
#
# Disc length: 2182 seconds
#
# Revision: 3
# Processed by: cddbd v1.5.2PL0 Copyright (c) Steve Scherf et al.
# Submitted via: ExactAudioCopy v0.95b4
#
DISCID=7508840a
DTITLE=Steve Miller Band - Number 5
DYEAR=1970
DGENRE=Rock
TTITLE0=Good Morning
TTITLE1=I Love You
TTITLE2=Going to the Country
TTITLE3=Hot Chili
TTITLE4=Tokin's
TTITLE5=Going to Mexico
TTITLE6=Steve Miller's Midnight Tango
TTITLE7=Industrial Military Complex Hex
TTITLE8=Jackson-Kent Blues
TTITLE9=Never Kill Another Man
EXTD=ID3G:   0
EXTT0=
EXTT1=
EXTT2=
EXTT3=
EXTT4=
EXTT5=
EXTT6=
EXTT7=
EXTT8=
EXTT9=
PLAYORDER=
